<?xml version="1.0" encoding="UTF-8" standalone="no"?>
<svg
   xmlns:dc="http://purl.org/dc/elements/1.1/"
   xmlns:cc="http://creativecommons.org/ns#"
   xmlns:rdf="http://www.w3.org/1999/02/22-rdf-syntax-ns#"
   xmlns:svg="http://www.w3.org/2000/svg"
   xmlns="http://www.w3.org/2000/svg"
   viewBox="0 0 633.33331 526.66669"
   height="526.66669"
   width="633.33331"
   xml:space="preserve"
   id="svg2"
   version="1.1"><metadata
     id="metadata8"><rdf:RDF><cc:Work
         rdf:about="no fate net logo svg white"><dc:format>image/svg+xml</dc:format><dc:type
           rdf:resource="http://purl.org/dc/dcmitype/StillImage" /></cc:Work></rdf:RDF></metadata><defs
     id="defs6" /><g
     transform="matrix(1.3333333,0,0,-1.3333333,0,526.66667)"
     id="g10"><g
       transform="scale(0.1)"
       id="g12"><path
         id="path14"
         style="fill:#fff;fill-opacity:1;fill-rule:nonzero;stroke:none"
         d="M 2083.34,2993.08 H 1450 v -1.67 h -0.84 v -620 H 1450 V 943.965 C 1626.01,784.016 1843,668.43 2083.34,614.641 V 2371.41 h 1648.8 c -69.93,239.51 -202.16,452.45 -378.06,620 H 2083.34 v 1.67" /><path
         id="path16"
         style="fill:none;stroke:#fff;stroke-width:500;stroke-linecap:butt;stroke-linejoin:miter;stroke-miterlimit:4;stroke-dasharray:none;stroke-opacity:1"
         d="m 4110,1978.89 c 0,-949.93 -770.07,-1719.995 -1720,-1719.995 -949.93,0 -1720,770.065 -1720,1719.995 0,949.94 770.07,1720 1720,1720 949.93,0 1720,-770.06 1720,-1720 z" /><path
         id="path18"
         style="fill:#fff;fill-opacity:1;fill-rule:nonzero;stroke:#fff"
         d="M 4743.33,1648.89 H 3.32813 v 573.34 H 4743.33 v -573.34" /></g></g></svg>